<?xml version="1.0" standalone="no"?>
<!DOCTYPE svg PUBLIC "-//W3C//DTD SVG 20010904//EN"
 "http://www.w3.org/TR/2001/REC-SVG-20010904/DTD/svg10.dtd">
<svg version="1.0" xmlns="http://www.w3.org/2000/svg"
 width="252.000000pt" height="75.000000pt" viewBox="0 0 252.000000 75.000000"
 preserveAspectRatio="xMidYMid meet">

<g transform="translate(0.000000,75.000000) scale(0.100000,-0.100000)"
fill="#000000" stroke="none">
<path d="M80 685 c0 -13 133 -15 1157 -13 914 2 1157 6 1161 16 3 9 -233 12
-1157 12 -1027 0 -1161 -2 -1161 -15z"/>
<path d="M1075 523 c4 -37 9 -72 12 -76 11 -19 21 11 25 73 3 62 2 65 -21 68
-23 4 -23 3 -16 -65z"/>
<path d="M104 527 c-8 -22 3 -37 27 -37 19 0 19 -6 17 -132 -3 -130 -3 -133
-26 -136 -15 -2 -22 -9 -20 -20 5 -24 153 -25 153 -2 0 10 -13 17 -35 20 -34
5 -35 6 -35 50 l0 45 50 6 c28 3 57 9 66 13 35 15 51 99 28 149 -17 37 -47 49
-136 55 -69 4 -84 2 -89 -11z m178 -54 c22 -20 24 -76 3 -96 -15 -16 -80 -31
-94 -23 -9 6 -12 114 -4 129 8 14 76 7 95 -10z"/>
<path d="M394 525 c-7 -18 3 -35 22 -35 11 0 14 -24 14 -131 0 -123 -1 -131
-20 -136 -13 -3 -20 -12 -18 -22 3 -13 18 -17 73 -19 99 -5 143 10 162 55 18
43 11 93 -17 118 -17 16 -18 20 -5 38 8 12 15 35 15 52 0 65 -51 95 -163 95
-41 0 -59 -4 -63 -15z m170 -51 c39 -38 8 -87 -55 -88 l-44 -1 -3 53 -3 52 45
0 c27 0 51 -6 60 -16z m-5 -135 c68 -24 46 -102 -33 -113 -25 -4 -50 -4 -56
-1 -11 7 -14 108 -3 118 10 10 56 8 92 -4z"/>
<path d="M754 525 c-10 -24 5 -35 47 -35 l39 0 0 -111 c0 -129 -14 -168 -61
-169 -30 0 -52 27 -58 70 -10 72 -31 62 -31 -13 0 -63 1 -65 32 -78 37 -15 87
-15 116 0 30 16 42 71 42 194 0 106 0 107 24 107 27 0 40 22 23 39 -17 17
-166 15 -173 -4z"/>
<path d="M1870 525 c-17 -21 -4 -33 40 -37 l35 -3 0 -130 0 -130 -40 -5 c-27
-3 -40 -10 -40 -20 0 -12 17 -15 95 -15 81 0 95 2 98 17 2 13 -5 17 -35 20
l-38 3 -3 132 -3 132 38 3 c30 2 38 7 38 23 0 18 -8 20 -86 23 -69 2 -89 0
-99 -13z"/>
<path d="M2128 534 c-15 -15 -8 -34 12 -34 19 0 20 -7 20 -140 0 -135 -1 -140
-21 -140 -14 0 -19 -5 -17 -17 5 -25 111 -26 116 -2 2 10 -5 19 -18 22 -17 4
-20 13 -20 56 0 55 14 71 45 53 9 -5 33 -40 54 -78 26 -48 44 -70 59 -72 27
-4 42 26 20 39 -9 5 -30 34 -47 64 l-31 56 26 23 c38 32 39 106 2 143 -22 22
-37 26 -109 30 -46 3 -87 2 -91 -3z m170 -58 c18 -18 19 -61 2 -81 -8 -9 -29
-15 -56 -15 l-44 0 0 53 c0 30 3 57 8 61 11 11 73 -1 90 -18z"/>
<path d="M1301 434 c-43 -55 -16 -121 54 -130 89 -12 106 -25 85 -65 -21 -39
-130 -13 -130 31 0 6 -7 10 -15 10 -11 0 -15 -12 -15 -48 l0 -49 76 -1 c89 -2
109 6 124 53 20 62 -23 115 -97 115 -47 0 -63 9 -63 36 0 23 25 44 54 44 8 0
31 -13 49 -30 19 -16 37 -30 41 -30 3 0 6 19 6 43 l0 43 -74 2 c-70 2 -76 1
-95 -24z"/>
<path d="M80 120 c0 -7 393 -10 1160 -10 767 0 1160 3 1160 10 0 7 -393 10
-1160 10 -767 0 -1160 -3 -1160 -10z"/>
</g>
</svg>
